<svg xmlns="http://www.w3.org/2000/svg" width="256" height="256"><path fill-opacity=".231" d="M0 128.004v128.004l128.25-.254 128.25-.254.254-127.75L257.008 0H0v128.004m.485.496c0 70.4.119 99.053.265 63.672.146-35.38.146-92.98 0-128C.604 29.153.485 58.1.485 128.5" fill="#191919" fill-rule="evenodd"/><path fill-opacity=".148" d="M0 128.004v128.004l128.25-.254 128.25-.254.254-127.75L257.008 0H0v128.004m.485.496c0 70.4.119 99.053.265 63.672.146-35.38.146-92.98 0-128C.604 29.153.485 58.1.485 128.5m77.269-74.155c-7.56 2.285-13.745 4.38-13.743 4.655.001.275 6.871 2.38 15.266 4.677l15.264 4.177 14.394-4.266c7.916-2.347 13.982-4.513 13.479-4.814-.922-.552-30.295-8.856-30.698-8.679-.119.053-6.402 1.965-13.962 4.25m83.852-1.595c-4.822 15.941-8.389 30.766-7.531 31.296 1.556.962 31.963 9.253 32.363 8.825.191-.204 2.351-7.571 4.8-16.371 3.026-10.869 4.103-16.205 3.358-16.639-1.26-.735-30.205-8.861-31.562-8.861-.495 0-1.137.788-1.428 1.75M54.919 77.25c-3 10.705-4.189 16.457-3.486 16.857 2.145 1.22 31.763 9.03 32.281 8.513 1.161-1.162 9.235-32.065 8.534-32.669C91.473 69.282 61.987 61 60.381 61c-.5 0-2.957 7.313-5.462 16.25m103.865 61.534c-1.475 8.608-2.483 15.85-2.239 16.094.359.359 12.182-2.714 13.259-3.446.254-.173-7.718-27.551-8.186-28.116-.084-.101-1.359 6.86-2.834 15.468m12.13 18.602c-.599 2.263-2.653 9.695-4.565 16.516-2.388 8.518-3.133 12.613-2.38 13.079 1.462.904 32.14 9.264 32.462 8.846.138-.18 2.292-7.675 4.787-16.655 3.049-10.972 4.167-16.467 3.409-16.75-.62-.231-8.214-2.385-16.875-4.785l-15.748-4.365-1.09 4.114M64.873 179.907c-2.52 9.126-4.477 16.726-4.348 16.889.527.667 32.705 9.308 33.119 8.894.638-.639 9.561-32.838 9.175-33.112-.175-.125-3.919-1.198-8.319-2.385-4.4-1.187-11.835-3.22-16.522-4.518l-8.522-2.36-4.583 16.592" fill="#191919" fill-rule="evenodd"/><path fill-opacity=".222" d="M0 128.004v128.004l128.25-.254 128.25-.254.254-127.75L257.008 0H0v128.004m.485.496c0 70.4.119 99.053.265 63.672.146-35.38.146-92.98 0-128C.604 29.153.485 58.1.485 128.5m76.269-74.155c-7.56 2.285-13.745 4.38-13.745 4.655.001.275 7.102 2.438 15.781 4.807l15.78 4.306 14.702-4.306c8.087-2.369 14.705-4.532 14.708-4.807.007-.575-30.969-9.079-32.48-8.917-.55.059-7.186 1.977-14.746 4.262m84.826-2.513c-2.118 7.018-8.575 30.871-8.577 31.682-.002.558 4.61 2.236 10.247 3.729 5.637 1.494 13.222 3.574 16.854 4.624l6.603 1.908 4.608-16.626c2.534-9.144 4.288-16.928 3.896-17.298-.391-.37-6.561-2.281-13.711-4.247-7.15-1.966-14.444-3.995-16.209-4.508-2.644-.769-3.297-.639-3.711.736m-35.011 8.516c-19.735 5.894-31.114 9.765-31.437 10.695-1.263 3.632-8.876 31.485-8.67 31.72.194.221 51.372-14.704 61.183-17.843 3.057-.978 3.261-1.426 7.355-16.154 2.315-8.332 4.436-15.738 4.712-16.457.276-.72-.109-1.284-.855-1.254-.746.03-15.276 4.212-32.288 9.293M55.052 75.716c-2.379 8.681-4.377 16.409-4.439 17.174-.079.968 4.971 2.82 16.641 6.105l16.754 4.716 1.347-4.606c3.816-13.046 7.953-29.12 7.575-29.428-.237-.191-7.33-2.251-15.764-4.576-8.434-2.326-15.886-4.44-16.561-4.699-.838-.322-2.597 4.528-5.553 15.314m98.63 13.153c2.265 9.026 18.313 61.506 18.988 62.098 1.255 1.1 31.45 9.246 32.049 8.647.287-.287-3.713-14.817-8.888-32.288l-9.41-31.768-16.687-4.609-16.687-4.61.635 2.53M51.514 100.382c.681 2.265 4.959 16.718 9.507 32.118 4.548 15.4 8.322 28.081 8.387 28.18.246.374 27.497-6.251 28.07-6.825.331-.331-2.603-11.36-6.519-24.509l-7.121-23.907-8.169-2.191a2245.059 2245.059 0 01-16.781-4.587l-8.613-2.396 1.239 4.117m107.157 37.89c-1.489 8.375-2.699 15.739-2.689 16.363.012.762 2.318.464 7.018-.907 3.85-1.123 6.989-2.534 6.976-3.135-.027-1.3-7.71-26.661-8.235-27.186-.2-.199-1.581 6.49-3.07 14.865M54.24 148.803L49.979 164.5l4.413 14.5c2.427 7.975 4.667 13.825 4.979 13 .312-.825 2.335-7.967 4.494-15.87l3.927-14.371-3.987-13.629c-2.192-7.497-4.283-13.944-4.646-14.327-.362-.383-2.576 6.367-4.919 15m115.908 10.866c-5.849 20.127-7.378 26.497-6.549 27.278.896.844 29.955 9.053 32.045 9.053.953 0 10.89-32.85 10.139-33.519-.155-.139-7.258-2.162-15.783-4.496-8.525-2.334-16.033-4.447-16.683-4.696-.74-.282-1.929 2.112-3.169 6.38m-33.846 3.686c-16.61 5.03-30.454 9.415-30.766 9.744-.689.727-9.507 32.263-9.128 32.642.147.147 11.478-3.065 25.18-7.139 13.701-4.073 28.103-8.348 32.004-9.499l7.092-2.093 2.14-7.755a29243.94 29243.94 0 014.564-16.505c2.162-7.808 2.245-8.739.767-8.645-.91.057-15.244 4.22-31.853 9.25M87 158.612c-5.775 1.346-11.175 2.71-12 3.029-.825.32 5.472 2.543 13.993 4.941l15.493 4.359 14.507-4.407c7.979-2.424 14.282-4.438 14.007-4.475-.275-.036-7.475-1.413-16-3.059-8.525-1.646-16.4-2.957-17.5-2.914-1.1.043-6.725 1.18-12.5 2.526m-22.306 21.099c-2.554 9.207-4.317 17.022-3.919 17.367 1.7 1.473 32.341 9.198 33.087 8.342.99-1.135 9.564-32.336 9.026-32.843-.213-.201-7.138-2.235-15.388-4.52-8.25-2.284-15.712-4.363-16.581-4.619-1.281-.377-2.466 2.723-6.225 16.273" fill="#191919" fill-rule="evenodd"/><path fill-opacity=".815" d="M0 128.004v128.004l128.25-.254 128.25-.254.254-127.75L257.008 0H0v128.004m.485.496c0 70.4.119 99.053.265 63.672.146-35.38.146-92.98 0-128C.604 29.153.485 58.1.485 128.5M75.75 54.28C68.188 56.555 62 58.663 62 58.963c0 .301 7.368 2.596 16.372 5.1 15.294 4.253 16.625 4.466 20.2 3.228 2.105-.728 4.276-1.175 4.823-.993.548.183-1.104.92-3.671 1.639-2.615.732-4.878 2.023-5.147 2.935-3.571 12.103-8.634 31.418-8.391 32.011.173.421 14.825-3.538 32.561-8.798 29.326-8.698 32.338-9.792 33.256-12.075l1.009-2.51-.467 2.518c-.458 2.472-.159 2.602 16.697 7.23 11.092 3.045 17.391 4.345 17.806 3.674 1.097-1.775 9.319-32.888 8.822-33.385-.918-.918-33.132-9.493-33.894-9.022-.426.263-1.344 2.843-2.039 5.732-.695 2.889-1.421 4.784-1.615 4.21-.193-.574.287-3.161 1.066-5.75.779-2.589 1.155-4.707.835-4.707-.319 0-8.887 2.488-19.04 5.529-10.152 3.04-18.697 5.29-18.988 5-.29-.291.222-.529 1.138-.529.917 0 1.667-.346 1.667-.769 0-.98-29.911-9.255-33.107-9.159-1.316.039-8.58 1.933-16.143 4.208m-17.143 7.47C56.075 70.14 50 92.524 50 93.461c0 1.374 33.127 10.833 34.148 9.75.698-.738 9.971-33.455 9.576-33.782C93.437 69.192 60.138 60 59.565 60c-.237 0-.668.788-.958 1.75M116.5 62c-1.261.542-1.445.859-.5.859.825 0 2.4-.386 3.5-.859 1.261-.542 1.445-.859.5-.859-.825 0-2.4.386-3.5.859m38.595 8.095c-1.222 4.461-2.04 8.293-1.818 8.516.223.222 1.405-3.245 2.628-7.706 1.222-4.461 2.04-8.293 1.818-8.516-.223-.222-1.405 3.245-2.628 7.706m41.094-5.009c-.592 1.878-2.709 9.373-4.705 16.656l-3.63 13.241 4.176 14.259c2.297 7.842 4.438 14.687 4.758 15.212.648 1.062 9.216-28.791 9.171-31.954-.015-1.1-1.978-8.486-4.362-16.414-4.213-14.013-4.363-14.319-5.408-11M106.5 65c-1.261.542-1.445.859-.5.859.825 0 2.4-.386 3.5-.859 1.261-.542 1.445-.859.5-.859-.825 0-2.4.386-3.5.859m29.089 25.046c-7.101 2.169-13.092 4.124-13.313 4.345-.221.221 4.014 1.182 9.411 2.136 5.397.953 12.85 2.298 16.563 2.987 4.96.921 6.746.953 6.736.12-.039-3.257-3.785-13.154-5.045-13.33-.792-.111-7.251 1.573-14.352 3.742m17.384-1.4c.518 1.569 2.785 9.154 5.038 16.854 2.252 7.7 4.345 14.844 4.649 15.875.359 1.216.165 1.635-.553 1.191-.609-.376-1.107-.383-1.107-.014 0 .788-4.822 27.873-5.57 31.287-.478 2.18-.29 2.29 2.779 1.633 7.42-1.59 1.146.595-18.554 6.463-11.465 3.415-21.037 6.017-21.271 5.782-.235-.235 3.192-1.457 7.616-2.717 4.424-1.26 7.776-2.562 7.449-2.895-.327-.333-8.071-2.009-17.208-3.726l-16.613-3.12-12.564 2.912c-6.91 1.601-13.239 3.161-14.064 3.467-.825.305 5.7 2.584 14.5 5.064l16 4.51 6.404-1.619c8.152-2.06 9.104-1.42 1.19.801-6.791 1.905-5.739-.002-11.589 21.008-1.976 7.096-3.461 13.427-3.299 14.07.194.771 11.189-2.067 32.294-8.334 17.6-5.227 32.12-9.578 32.266-9.67.818-.513 9.246-32.995 8.837-34.061-.27-.703.013-1.446.629-1.651.616-.205 8.779 1.777 18.14 4.405 9.362 2.629 17.19 4.611 17.396 4.405.205-.206-3.737-14.255-8.762-31.22-5.024-16.965-9.343-31.574-9.596-32.465-.323-1.131-4.889-2.844-15.186-5.694-22.201-6.145-20.36-5.902-19.251-2.541M50 96.564c0 .311 3.63 12.73 8.067 27.6 4.437 14.869 7.887 27.216 7.666 27.436-.221.221-1.674-3.986-3.229-9.349-1.555-5.363-3.051-10.161-3.324-10.661-.626-1.148-9.113 29.03-9.115 32.41-.001 3.584 8.398 31.203 9.235 30.366.385-.385.7.195.7 1.287 0 1.716 2.15 2.577 15.75 6.304 8.662 2.375 16.375 4.368 17.14 4.43.968.079 2.838-5.035 6.172-16.881 2.631-9.347 4.681-17.097 4.555-17.222-.125-.125-7.795-2.316-17.044-4.868-12.693-3.502-17.003-4.338-17.576-3.411-.418.676-2.457 7.482-4.532 15.124-2.075 7.643-3.963 13.706-4.196 13.474-.232-.233 1.474-7.246 3.791-15.584 3.85-13.852 4.11-15.509 3.008-19.188-.664-2.214-1.023-4.21-.798-4.435.225-.225.95 1.394 1.61 3.598.66 2.203 1.745 3.996 2.41 3.984 3.328-.061 28.194-6.741 28.089-7.546-.308-2.366-13.704-47.02-14.305-47.685C83.508 105.12 52.102 96 50.511 96c-.281 0-.511.254-.511.564m41.393 6.523l-6.107 1.9 4.387 14.704c2.413 8.086 4.529 14.845 4.702 15.018.174.173 1.115-4.303 2.093-9.947.978-5.644 2.345-13.299 3.039-17.012 1.466-7.85 1.7-7.716-8.114-4.663M163.141 125c0 .825.386 2.4.859 3.5.542 1.261.859 1.445.859.5 0-.825-.386-2.4-.859-3.5-.542-1.261-.859-1.445-.859-.5m2.011 7c0 .825.607 3.075 1.348 5 .741 1.925 1.348 2.825 1.348 2 0-.825-.607-3.075-1.348-5-.741-1.925-1.348-2.825-1.348-2m3 10c0 .825.607 3.075 1.348 5 .741 1.925 1.348 2.825 1.348 2 0-.825-.607-3.075-1.348-5-.741-1.925-1.348-2.825-1.348-2m-4.652 12c-1.261.542-1.445.859-.5.859.825 0 2.4-.386 3.5-.859 1.261-.542 1.445-.859.5-.859-.825 0-2.4.386-3.5.859m3.591 15.25c-2.417 8.938-4.438 16.673-4.493 17.189-.133 1.279 33.664 10.756 34.357 9.634 1.163-1.881 9.339-33.112 8.808-33.643-.622-.622-31.675-9.42-33.271-9.426-.554-.002-2.985 7.309-5.401 16.246m-20.85 23.585c-8.393 2.464-15.076 4.664-14.852 4.888.224.224 7.541 2.405 16.259 4.848l15.852 4.441 14-4.1c7.7-2.255 14.591-4.429 15.314-4.832.79-.44-1.801-1.591-6.5-2.888A33886.81 33886.81 0 00170 190.695l-8.5-2.34-15.259 4.48" fill="#191919" fill-rule="evenodd"/></svg>